<svg width="1665" height="233" viewBox="0 0 1665 233" fill="none" xmlns="http://www.w3.org/2000/svg">
<path d="M-546 120.243C-335.147 233 -113.253 125.276 33.723 55.4073C230.256 -38.0202 259.696 109.536 511.229 55.4073C699 15 722.586 122.449 957.132 55.4073C1091.5 17 1140.83 160.11 1355.14 55.4074C1563 -46.1466 1578.33 144.002 1741.78 55.4074C1906.72 -33.9922 1870.66 46.9377 1870.66 4.32922e-06" stroke="#006A84" stroke-width="6"/>
<path d="M1959.66 14C1959.66 58.1174 1995.72 -17.9498 1830.78 66.0782C1667.33 149.35 1589.44 -0.644537 1444.14 66.0782C1229.83 164.49 1185.38 4.49781 1046.13 66.0781C825.403 163.689 785.405 11.2909 600.229 66.0781C354.81 138.689 319.256 -21.7357 122.723 66.0781C-24.2526 131.749 -246.147 233 -457 127.018L-457 233" stroke="#789885" stroke-width="6"/>
<path d="M-753 152.793C-542.147 252 -320.253 157.222 -173.277 95.7489C23.256 13.5488 58.8098 163.718 304.229 95.7489C489.405 44.4641 529.403 187.12 750.132 95.7489C889.384 38.1053 933.826 187.87 1148.14 95.749C1293.44 33.2916 1371.33 173.697 1534.78 95.749C1699.72 17.0927 1663.66 88.2971 1663.66 47" stroke="#26BDE2" stroke-width="6"/>
</svg>
