<svg width="1655" height="802" viewBox="0 0 1655 802" fill="none" xmlns="http://www.w3.org/2000/svg">
<path d="M1654.5 768.5C1274.83 768.5 505.5 769.5 243.5 769.5C-84.0001 769.5 -38.0001 519 243.5 515.5C525 512 1064.3 515.5 1377.8 515.5C1691.3 515.5 1747.8 253.5 1377.8 253.5C1081.8 253.5 638.333 249.5 233.499 249.5C-59.9707 254.74 -79.7685 -8.90922 233.499 2.00041H514L1655 2.00049" stroke="#88B3E5" stroke-width="3"/>
<path d="M1654.59 785.365C1274.92 785.365 505.588 786.365 243.588 786.365C-83.9122 786.365 -37.9122 535.865 243.588 532.365C525.088 528.865 1064.39 532.365 1377.89 532.365C1691.39 532.365 1747.89 270.366 1377.89 270.366C1081.89 270.366 638.421 266.366 233.587 266.366C-59.8828 271.605 -79.6806 10.0905 233.587 21.0001H947L1655 21.0002" stroke="#D9B1B0" stroke-width="3"/>
<path d="M1653.59 799.366C1273.92 799.366 504.588 800.365 242.588 800.365C-84.9124 800.365 -38.9124 549.866 242.588 546.366C524.088 542.866 1063.39 546.366 1376.89 546.366C1690.39 546.366 1746.89 284.366 1376.89 284.366C1080.89 284.366 637.42 280.366 232.587 280.366C-60.883 285.605 -85.7683 26.5907 227.5 37.5003H510.999H1658" stroke="#789885" stroke-width="3"/>
</svg>
